<svg xmlns="http://www.w3.org/2000/svg" version="1.1" xmlns:xlink="http://www.w3.org/1999/xlink" xmlns:svgjs="http://svgjs.dev/svgjs" width="1500" height="1500" viewBox="0 0 1500 1500"><rect width="1500" height="1500" fill="#ffffff"></rect><g transform="matrix(0.6666666666666666,0,0,0.6666666666666666,250.2005201942443,270.0556005398111)"><svg viewBox="0 0 257 247" data-background-color="#ffffff" preserveAspectRatio="xMidYMid meet" height="1441" width="1500" xmlns="http://www.w3.org/2000/svg" xmlns:xlink="http://www.w3.org/1999/xlink"><g id="tight-bounds" transform="matrix(1,0,0,1,-0.051533689920773895,-0.09999999999999432)"><svg viewBox="0 0 257.10306737984155 247.2" height="247.2" width="257.10306737984155"><g><svg viewBox="0 0 395.52 380.28540459049367" height="247.2" width="257.10306737984155"><g transform="matrix(1,0,0,1,0,275.82414090051896)"><svg viewBox="0 0 395.52 104.46126368997471" height="104.46126368997471" width="395.52"><g id="textblocktransform"><svg viewBox="0 0 395.52 104.46126368997471" height="104.46126368997471" width="395.52" id="textblock"><g><svg viewBox="0 0 395.52 104.46126368997471" height="104.46126368997471" width="395.52"><g transform="matrix(1,0,0,1,0,0)"><svg width="395.52" viewBox="4.45 -30.65 118.69 31.349999999999998" height="104.46126368997471" data-palette-color="#495e57"><g class="wordmark-text-0" data-fill-palette-color="primary" id="text-0"><path d="M4.45-2.2L4.45-17.75 8.55-17.75 8.55-0.4 6.65 0Q5.7 0 5.08-0.63 4.45-1.25 4.45-2.2L4.45-2.2ZM21.8 0L6.65 0 6.65-3.5 22.9-3.5Q23.15-3.3 23.3-2.85 23.45-2.4 23.45-1.85L23.45-1.85Q23.45-1 23-0.5 22.55 0 21.8 0L21.8 0ZM8.55-28.8L8.55-14.75 4.45-14.75 4.45-30.3Q4.7-30.4 5.23-30.53 5.75-30.65 6.35-30.65L6.35-30.65Q7.45-30.65 8-30.23 8.55-29.8 8.55-28.8L8.55-28.8ZM28.8-8.45L28.8-8.45 28.8-13 32.8-13 32.8-8.65Q32.8-5.45 34.5-4.05 36.2-2.65 39.2-2.65L39.2-2.65Q41.2-2.65 42.6-3.08 44-3.5 44.8-3.95L44.8-3.95 44.8-13 48.8-13 48.8-4.1Q48.8-3.05 48.52-2.43 48.25-1.8 47.2-1.2L47.2-1.2Q46.1-0.55 44.05 0.05 42 0.65 39.15 0.65L39.15 0.65Q35.85 0.65 33.52-0.33 31.2-1.3 30-3.33 28.8-5.35 28.8-8.45ZM48.8-21.5L48.8-10.4 44.8-10.4 44.8-23Q45.05-23.1 45.57-23.23 46.1-23.35 46.65-23.35L46.65-23.35Q47.75-23.35 48.27-22.93 48.8-22.5 48.8-21.5L48.8-21.5ZM32.8-21.5L32.8-10.4 28.8-10.4 28.8-23Q29.05-23.1 29.57-23.23 30.1-23.35 30.7-23.35L30.7-23.35Q31.75-23.35 32.27-22.93 32.8-22.5 32.8-21.5L32.8-21.5ZM76.3-15.25L76.3-15.25 76.3-10.15 72.3-10.15 72.3-15.05Q72.3-17.85 70.72-19.15 69.15-20.45 66.5-20.45L66.5-20.45Q64.5-20.45 62.95-19.95 61.4-19.45 60.3-18.8L60.3-18.8 60.3-10.15 56.3-10.15 56.3-18.6Q56.3-19.65 56.72-20.33 57.15-21 58.2-21.65L58.2-21.65Q59.5-22.4 61.65-23.08 63.8-23.75 66.5-23.75L66.5-23.75Q71.05-23.75 73.67-21.68 76.3-19.6 76.3-15.25ZM56.3-1.55L56.3-12.9 60.3-12.9 60.3-0.1Q60.05 0 59.55 0.13 59.05 0.25 58.45 0.25L58.45 0.25Q57.4 0.25 56.84-0.18 56.3-0.6 56.3-1.55L56.3-1.55ZM72.3-1.55L72.3-12.9 76.3-12.9 76.3-0.1Q76.05 0 75.52 0.13 75 0.25 74.45 0.25L74.45 0.25Q73.34 0.25 72.82-0.18 72.3-0.6 72.3-1.55L72.3-1.55ZM92.04 0.7L92.04 0.7Q87.34 0.7 84.77-1.15 82.19-3 82.19-6.5L82.19-6.5Q82.19-9.75 84.37-11.48 86.54-13.2 90.39-13.55L90.39-13.55 97.49-14.25 97.49-15.65Q97.49-18.15 95.99-19.3 94.49-20.45 91.94-20.45L91.94-20.45Q89.89-20.45 88.02-19.85 86.14-19.25 84.69-18.5L84.69-18.5Q84.29-18.85 83.97-19.33 83.64-19.8 83.64-20.3L83.64-20.3Q83.64-21.6 85.09-22.3L85.09-22.3Q86.44-23 88.22-23.38 89.99-23.75 91.99-23.75L91.99-23.75Q96.34-23.75 98.89-21.8 101.44-19.85 101.44-15.65L101.44-15.65 101.44-3.8Q101.44-2.7 101.02-2.13 100.59-1.55 99.74-1.05L99.74-1.05Q98.54-0.4 96.54 0.15 94.54 0.7 92.04 0.7ZM92.04-2.6L92.04-2.6Q94.14-2.6 95.52-3.03 96.89-3.45 97.49-3.85L97.49-3.85 97.49-11.1 91.29-10.45Q88.69-10.25 87.44-9.3 86.19-8.35 86.19-6.55L86.19-6.55Q86.19-4.7 87.67-3.65 89.14-2.6 92.04-2.6ZM112.74-18.8L112.74-18.8 112.74-10.9 108.74-10.9 108.74-18.5Q108.74-19.65 109.17-20.33 109.59-21 110.59-21.65L110.59-21.65Q111.89-22.5 114.14-23.13 116.39-23.75 119.14-23.75L119.14-23.75Q123.14-23.75 123.14-21.75L123.14-21.75Q123.14-21.25 122.99-20.83 122.84-20.4 122.59-20.1L122.59-20.1Q122.09-20.2 121.29-20.3 120.49-20.4 119.69-20.4L119.69-20.4Q117.39-20.4 115.64-19.93 113.89-19.45 112.74-18.8ZM108.74-1.55L108.74-13.2 112.74-12.6 112.74-0.1Q112.49 0 111.99 0.13 111.49 0.25 110.89 0.25L110.89 0.25Q109.84 0.25 109.29-0.18 108.74-0.6 108.74-1.55L108.74-1.55Z" fill="#000000" data-fill-palette-color="primary"></path></g></svg></g></svg></g></svg></g></svg></g><g transform="matrix(1,0,0,1,84.508726836615,0)"><svg viewBox="0 0 226.50254632677 226.50254632677" height="226.50254632677" width="226.50254632677"><g><svg></svg></g><g id="icon-0"><svg viewBox="0 0 226.50254632677 226.50254632677" height="226.50254632677" width="226.50254632677"><g><path d="M0 113.251c0-62.547 50.704-113.251 113.251-113.251 62.547 0 113.251 50.704 113.252 113.251 0 62.547-50.704 113.251-113.252 113.252-62.547 0-113.251-50.704-113.251-113.252zM113.251 217.082c57.344 0 103.831-46.487 103.831-103.831 0-57.344-46.487-103.831-103.831-103.831-57.344 0-103.831 46.487-103.831 103.831 0 57.344 46.487 103.831 103.831 103.831z" data-fill-palette-color="accent" fill="#000000" stroke="transparent"></path></g><g transform="matrix(1,0,0,1,56.05298885176398,48.47372963164594)"><svg viewBox="0 0 114.39656862324203 129.5550870634781" height="129.5550870634781" width="114.39656862324203"><g><svg xmlns="http://www.w3.org/2000/svg" xmlns:xlink="http://www.w3.org/1999/xlink" version="1.1" x="0" y="0" viewBox="6.5 3.632 78.835 89.28130809838134" enable-background="new 0 0 100 100" xml:space="preserve" height="129.5550870634781" width="114.39656862324203" class="icon-dxe-0" data-fill-palette-color="accent" id="dxe-0"><path d="M82.667 32.5S68.59 30.451 69.653 28.325 77.892 18.756 77.892 18.756L81.879 22.743 82.942 15.833 82 11.167C82 8.243 78.167 3.632 78.167 3.632S60.201 14.569 58.406 15.633C56.612 16.695 53.859 15.66 51.711 16.192 49.562 16.723 36.574 25.667 36.574 25.667 26.618 21.68 24.733 24.072 19.151 25.667S10.911 34.172 10.911 34.172 16.227 34.97 17.024 34.97 25.264 37.362 25.264 37.362 23.935 40.552 22.871 41.349 17.024 53.31 17.024 53.31L21.277 51.981 6.5 86.334C12.5 85.001 13.17 81.721 24.333 87.834S65.166 92.834 65.166 92.834 60.987 84.029 59.58 77.834C58.406 72.667 60.954 63.145 60.954 63.145L63.166 65S63.421 58.108 63.54 56.233C64 49 60.724 46.561 61.291 46 66.342 41.008 67.45 41.148 71.667 39.5 75.905 37.843 83.741 36.564 83.741 36.564L85.335 33.375 83.209 29.919zM26 35.833S15.039 32.692 13.833 31.833C13.833 31.833 16.999 29.833 19.666 29.833S21.999 30.833 21.999 30.833 25.332 30.333 26.832 29.833 30.665 29.833 30.665 29.833zM52.586 25.167S50.834 29 49.536 29 46.139 28.333 46.139 28.333L42.937 29 45.319 27.5 53.462 23.667z" fill="#000000" data-fill-palette-color="accent"></path></svg></g></svg></g></svg></g></svg></g><g></g></svg></g><defs></defs></svg><rect width="257.10306737984155" height="247.2" fill="none" stroke="none" visibility="hidden"></rect></g></svg></g></svg>